<?xml version="1.0" encoding="UTF-8"?>
<svg version="1.1" xmlns="http://www.w3.org/2000/svg" width="512" height="512">
<path d="M0 0 C49.9372441 -1.8723504 100.09897977 17.2128811 136.72949219 51.01660156 C138.75205723 52.87120272 140.82214453 54.63726567 142.92480469 56.39941406 C179.00347416 88.1572848 200.55013645 138.00008727 203.84228516 185.49707031 C205.89110768 222.08614334 199.32181587 258.95203863 181.89550781 291.38818359 C181.08709625 292.90026092 180.30846307 294.42817372 179.53417969 295.95800781 C171.33011451 311.82391547 159.99005624 325.77758199 147.92480469 338.83691406 C147.35914795 339.45123291 146.79349121 340.06555176 146.21069336 340.69848633 C112.11483742 377.09128492 61.06785846 398.5098823 11.58496094 400.27832031 C-30.84292495 401.16651241 -74.26274402 389.9742584 -109.01269531 365.08691406 C-109.62306641 364.66007324 -110.2334375 364.23323242 -110.86230469 363.79345703 C-154.10015657 333.44673 -183.52324628 287.01598346 -193.01269531 235.08691406 C-194.6977883 225.46361193 -195.5731128 215.84350153 -196.01269531 206.08691406 C-196.07650391 204.69859375 -196.07650391 204.69859375 -196.14160156 203.28222656 C-196.81828012 172.15501282 -189.65938682 140.97390317 -176.01269531 113.08691406 C-175.66335937 112.36906738 -175.31402344 111.6512207 -174.95410156 110.91162109 C-163.16729115 86.98720234 -146.00982063 63.7425285 -125.01269531 47.08691406 C-124.12066406 46.35730469 -123.22863281 45.62769531 -122.30957031 44.87597656 C-86.83929781 16.62452837 -45.10432322 1.94773642 0 0 Z " fill="#F8F8F8" transform="translate(252.0126953125,55.9130859375)"/>
<path d="M0 0 C49.9372441 -1.8723504 100.09897977 17.2128811 136.72949219 51.01660156 C138.75205723 52.87120272 140.82214453 54.63726567 142.92480469 56.39941406 C179.00347416 88.1572848 200.55013645 138.00008727 203.84228516 185.49707031 C205.89110768 222.08614334 199.32181587 258.95203863 181.89550781 291.38818359 C181.08709625 292.90026092 180.30846307 294.42817372 179.53417969 295.95800781 C171.33011451 311.82391547 159.99005624 325.77758199 147.92480469 338.83691406 C147.35914795 339.45123291 146.79349121 340.06555176 146.21069336 340.69848633 C112.11483742 377.09128492 61.06785846 398.5098823 11.58496094 400.27832031 C-30.84292495 401.16651241 -74.26274402 389.9742584 -109.01269531 365.08691406 C-109.62306641 364.66007324 -110.2334375 364.23323242 -110.86230469 363.79345703 C-154.10015657 333.44673 -183.52324628 287.01598346 -193.01269531 235.08691406 C-194.6977883 225.46361193 -195.5731128 215.84350153 -196.01269531 206.08691406 C-196.07650391 204.69859375 -196.07650391 204.69859375 -196.14160156 203.28222656 C-196.81828012 172.15501282 -189.65938682 140.97390317 -176.01269531 113.08691406 C-175.66335937 112.36906738 -175.31402344 111.6512207 -174.95410156 110.91162109 C-163.16729115 86.98720234 -146.00982063 63.7425285 -125.01269531 47.08691406 C-124.12066406 46.35730469 -123.22863281 45.62769531 -122.30957031 44.87597656 C-86.83929781 16.62452837 -45.10432322 1.94773642 0 0 Z M-78.01269531 53.08691406 C-79.60404297 53.93576172 -79.60404297 53.93576172 -81.22753906 54.80175781 C-92.96608961 61.35745293 -103.27390289 69.85824886 -113.01269531 79.08691406 C-114.35460937 80.34955078 -114.35460937 80.34955078 -115.72363281 81.63769531 C-146.39681748 111.3228082 -163.48744454 154.35586919 -164.36621094 196.75634766 C-164.65265474 241.16164747 -149.06135417 283.99460281 -118.01269531 316.08691406 C-116.34727755 317.7548287 -114.68072197 319.42160849 -113.01269531 321.08691406 C-112.23925781 321.91255859 -112.23925781 321.91255859 -111.45019531 322.75488281 C-85.87309157 349.79154954 -47.38893485 363.55686599 -11.2734375 367.81689453 C-9.40480518 368.04008107 -7.54006151 368.29556592 -5.67675781 368.55957031 C33.15397343 373.08808723 75.12989659 357.79125866 106.01464844 334.83691406 C108.73608764 332.65039189 111.37306666 330.40039904 113.98730469 328.08691406 C114.47682617 327.65765625 114.96634766 327.22839844 115.47070312 326.78613281 C147.42893735 298.65802304 167.75485601 259.59877483 171.98730469 217.08691406 C172.27045556 211.52054903 172.32957724 205.97193462 172.29980469 200.39941406 C172.29607346 199.27832245 172.29607346 199.27832245 172.29226685 198.13458252 C172.04694606 150.37412991 152.00911288 109.15966119 118.60839844 75.70410156 C92.00589149 50.58701378 56.97067459 36.37228255 20.98730469 32.08691406 C20.28234863 31.99893555 19.57739258 31.91095703 18.85107422 31.8203125 C-14.5819353 27.94060691 -48.73947457 37.41966687 -78.01269531 53.08691406 Z " fill="#FDD402" transform="translate(252.0126953125,55.9130859375)"/>
<path d="M0 0 C19.86620898 0 19.86620898 0 26.25 1.125 C27.41305664 1.32186401 27.41305664 1.32186401 28.59960938 1.52270508 C63.13472514 7.76204014 92.11610185 23.73803833 118 47 C118.67546875 47.60199219 119.3509375 48.20398438 120.046875 48.82421875 C134.58414088 62.56539626 145.77546468 80.92514913 154 99 C154.53367187 100.16660156 155.06734375 101.33320313 155.6171875 102.53515625 C158.83101599 110.05351667 161.15232266 117.66955549 163.25 125.5625 C163.49637207 126.48361572 163.74274414 127.40473145 163.99658203 128.35375977 C167.31772073 141.39846728 168.38413456 154.27967988 168.3125 167.6875 C168.31001251 168.43489441 168.30752502 169.18228882 168.30496216 169.95233154 C168.17349651 195.54681499 162.97374548 220.19286575 151 243 C150.37604712 244.24922351 149.75368694 245.49924363 149.1328125 246.75 C141.75035828 261.37628839 131.91692266 273.85259308 121 286 C120.09701172 287.01320313 120.09701172 287.01320313 119.17578125 288.046875 C93.31061772 315.41052407 53.98813072 332.26725286 17 336 C11.39 336 5.78 336 0 336 C0 291.12 0 246.24 0 200 C0.99 200 1.98 200 3 200 C3.17273438 200.65226563 3.34546875 201.30453125 3.5234375 201.9765625 C3.80445313 202.85054687 4.08546875 203.72453125 4.375 204.625 C4.75785156 205.91277344 4.75785156 205.91277344 5.1484375 207.2265625 C8.10445988 211.65435973 12.37376768 213.52199776 17 216 C17.5761908 216.31136902 18.15238159 216.62273804 18.74603271 216.94354248 C23.39620735 219.45470761 28.07074828 221.91855661 32.75 224.375 C35.49631909 225.81743257 38.24133411 227.26227978 40.984375 228.7109375 C41.65231079 229.06355652 42.32024658 229.41617554 43.00842285 229.77947998 C48.82466197 232.86888216 54.52961232 236.13383089 60.21582031 239.45556641 C64.64893988 241.91469604 68.98084232 242.9179332 74 242 C84.34212934 237.21346511 87.91044961 226.24626794 92.73828125 216.4921875 C96.77550774 208.38081663 100.98450815 200.36815018 105.25 192.375 C105.98962619 190.98553713 106.72920892 189.59605113 107.46875 188.20654297 C113.25671743 177.34344699 119.12100497 166.52304105 125.0546875 155.73876953 C126.9604463 152.23339397 127.40534236 150.05342358 127 146 C125.62716577 143.45997987 125.62716577 143.45997987 123 142 C118.65720753 141.55836009 115.24660321 141.88099565 111.0625 143 C96.75782102 146.44005256 81.2826673 144.17704402 68.66015625 136.78515625 C56.35308222 128.52622405 48.61397661 117.73385019 43.421875 104.06640625 C41.96898238 100.9331076 40.65533113 99.176754 38 97 C29.40007699 94.133359 19.25367841 96.20245174 10.5078125 97.5625 C7 98 7 98 0 98 C0 65.66 0 33.32 0 0 Z " fill="#E1DEF3" transform="translate(256,88)"/>
<path d="M0 0 C9.47775587 4.74840332 18.49890521 9.02696821 29 11 C30.17949219 11.26876953 30.17949219 11.26876953 31.3828125 11.54296875 C45.59787107 14.02529987 60.26651792 11.03503179 74.32275391 8.77880859 C98.02258632 5.03067984 98.02258632 5.03067984 105 10 C108.37355312 13.57670505 110.01102382 17.1201302 111.75 21.6875 C114.48332622 28.4323584 118.01363637 33.70912562 123 39 C123.59296875 39.63421875 124.1859375 40.2684375 124.796875 40.921875 C135.9213266 51.66600347 149.78442178 55.28432931 164.76074219 55.24389648 C169.38488146 55.15835913 173.6001027 54.65251147 178.08203125 53.46484375 C181.60447158 52.61113622 184.3722172 52.57675867 188 53 C191.18884859 55.25876775 192.75377152 56.62876206 193.453125 60.5234375 C192.76667167 65.79019148 190.27735694 69.87922196 187.75 74.5 C187.20786865 75.51392822 186.6657373 76.52785645 186.10717773 77.57250977 C184.41810093 80.72240975 182.71119381 83.86206929 181 87 C179.9959232 88.85277216 178.99200988 90.70563294 177.98828125 92.55859375 C175.52497559 97.09353946 173.04664572 101.62012255 170.56494141 106.14501953 C167.7847423 111.21703955 165.0136373 116.29393767 162.25 121.375 C161.70214844 122.37950195 161.15429688 123.38400391 160.58984375 124.41894531 C158.17535176 128.87139747 155.80557006 133.32797009 153.61328125 137.89453125 C153.08395996 138.99498779 153.08395996 138.99498779 152.54394531 140.11767578 C151.91867224 141.4363487 151.3059102 142.76107961 150.70996094 144.09326172 C148.5340603 148.70714268 146.06351067 151.07148836 142 154 C136.79304231 155.73565256 132.54457238 155.58480469 127.4921875 153.671875 C126.27743365 153.04853216 125.07203434 152.40672825 123.875 151.75 C123.20178711 151.39719971 122.52857422 151.04439941 121.83496094 150.6809082 C119.54600104 149.47284603 117.2727406 148.23828692 115 147 C113.25785067 146.06112708 111.51566163 145.12232785 109.7734375 144.18359375 C106.05278859 142.17182246 102.34563112 140.13732911 98.64453125 138.08984375 C94.89933249 136.02287823 91.12911212 134.02119573 87.32421875 132.06640625 C85.96538574 131.355448 85.96538574 131.355448 84.57910156 130.63012695 C82.8721911 129.73833723 81.15707974 128.86199574 79.43261719 128.00463867 C73.96051017 125.11062626 70.33469913 121.85831802 68 116 C68 114.68 68 113.36 68 112 C66.91847656 112.07863281 65.83695312 112.15726562 64.72265625 112.23828125 C49.9902532 112.6996368 39.56329983 106.96822463 27.04003906 99.74902344 C23.4380597 97.6766993 19.7952532 95.68879285 16.14135742 93.70996094 C13.48841186 92.27235227 10.84403653 90.81968673 8.19921875 89.3671875 C1.20825359 85.54968337 -5.83818272 81.83820397 -12.88296509 78.12133789 C-17.26638838 75.80680543 -21.6453474 73.48383328 -26.02467346 71.16156006 C-30.14735344 68.97669845 -34.27844859 66.80875336 -38.4140625 64.6484375 C-40.19319549 63.70404218 -41.97188769 62.75881567 -43.75 61.8125 C-44.90846436 61.21779907 -44.90846436 61.21779907 -46.09033203 60.61108398 C-51.94094639 57.46193184 -56.84619048 53.46142857 -59 47 C-59.47664125 41.36882407 -58.25931257 37.55936895 -55.625 32.6875 C-55.26921875 32.00888916 -54.9134375 31.33027832 -54.546875 30.63110352 C-53.77944656 29.17679354 -53.00479628 27.72627564 -52.22363281 26.27929688 C-50.96423483 23.93337917 -49.7431657 21.56987602 -48.5234375 19.203125 C-42.84136228 8.35462343 -37.78210415 -0.08009731 -25.69921875 -4.3359375 C-15.83124648 -6.76365861 -8.73950053 -4.58933571 0 0 Z " fill="#FE9F40" transform="translate(191,176)"/>
<path d="M0 0 C49.05170353 0 96.5877971 17.56534652 132.7421875 50.9296875 C134.76475254 52.78428866 136.83483984 54.55035161 138.9375 56.3125 C175.01616948 88.07037074 196.56283176 137.91317321 199.85498047 185.41015625 C201.903803 221.99922928 195.33451118 258.86512457 177.90820312 291.30126953 C177.09979156 292.81334686 176.32115838 294.34125966 175.546875 295.87109375 C167.34280982 311.73700141 156.00275155 325.69066792 143.9375 338.75 C143.37184326 339.36431885 142.80618652 339.9786377 142.22338867 340.61157227 C111.17615091 373.75037578 66.07991373 394.2079282 21.3125 399.1875 C20.56476318 399.27161133 19.81702637 399.35572266 19.04663086 399.44238281 C12.61323205 400.08859006 6.56083056 400 0 400 C0 389.44 0 378.88 0 368 C3.650625 367.773125 7.30125 367.54625 11.0625 367.3125 C47.40248552 364.59710017 82.50888432 351.27839654 110 327 C110.97453125 326.15824219 111.9490625 325.31648438 112.953125 324.44921875 C125.05222742 313.82993261 134.49409001 301.61813918 143 288 C143.69996094 286.89140625 144.39992188 285.7828125 145.12109375 284.640625 C153.11428364 271.36538565 158.42345206 257.07103283 162.375 242.125 C162.6136377 241.22338135 162.85227539 240.3217627 163.09814453 239.39282227 C166.34173969 226.43603161 167.38358678 213.6177925 167.3125 200.3125 C167.30876877 199.19140839 167.30876877 199.19140839 167.30496216 198.04766846 C167.07426304 153.13384579 149.21973992 111.33761644 117.52099609 79.48632812 C103.50049105 65.78539158 86.86547443 54.98128092 69 47 C68.38592285 46.72462402 67.7718457 46.44924805 67.13916016 46.16552734 C45.65476932 36.69870015 23.31610948 32.99641493 0 32 C0 21.44 0 10.88 0 0 Z " fill="#E84444" transform="translate(256,56)"/>
<path d="M0 0 C5.03457724 2.74008695 8.23270658 6.2442131 11.6875 10.6875 C12.20441406 11.34613037 12.72132813 12.00476074 13.25390625 12.68334961 C47.65229501 57.23870163 65.78583929 112.60823465 65.4375 168.6875 C65.43445862 169.73349365 65.43141724 170.7794873 65.42828369 171.85717773 C65.35813273 188.22074768 64.52694947 203.96767947 61 220 C60.78569336 221.01271973 60.57138672 222.02543945 60.35058594 223.06884766 C52.81336608 257.97374574 38.08030489 291.18172531 17 320 C16.52353027 320.65613281 16.04706055 321.31226563 15.55615234 321.98828125 C14.13883922 323.92319274 12.6999995 325.83949536 11.25 327.75 C10.82662354 328.32266602 10.40324707 328.89533203 9.96704102 329.48535156 C6.09523083 334.46029484 1.89215804 337.57932247 -4.4375 338.5 C-10.34962899 337.67022751 -14.45984384 335.73761208 -18.4375 331.25 C-20.24102404 327.49867 -21.40447481 324.18447578 -21 320 C-19.19477144 314.97197559 -16.98045543 311.40318065 -13.5625 307.25 C23.46900899 260.73085118 38.82830214 199.48675924 32.23071289 140.75097656 C31.6361837 136.46644909 30.87387104 132.23587983 30 128 C29.80132324 127.01854004 29.60264648 126.03708008 29.39794922 125.02587891 C22.30001924 90.92923101 8.48225083 60.11179324 -12.4921875 32.33203125 C-21.4509888 20.46074121 -21.4509888 20.46074121 -21.34375 13.1953125 C-20.52072878 7.93919968 -17.48965376 4.10857954 -13.3125 1 C-8.85899927 -0.34445305 -4.59651601 -0.88987429 0 0 Z " fill="#E74444" transform="translate(447,87)"/>
<path d="M0 0 C4.13404216 1.32571751 7.05715304 3.62556926 9.4375 7.25 C11.46820578 11.33767069 11.50245549 14.47790063 11 19 C9.07601879 23.44920656 6.61057174 26.93872211 3.5625 30.6875 C-33.22103739 77.27952311 -48.6605046 137.82611567 -42.31640625 196.53125 C-36.94282959 236.75031358 -21.56006504 275.75944497 3.9765625 307.453125 C8.25829353 312.77445327 11.3851656 316.89795776 10.875 324 C10.17444689 328.12460484 8.81179007 330.82772402 6 334 C1.26494651 337.31453744 -3.18383228 338.93474124 -9 338 C-15.2437382 335.0629677 -19.24605448 330.87540822 -23.25 325.375 C-23.80083252 324.63427246 -24.35166504 323.89354492 -24.91918945 323.13037109 C-49.65518536 289.36960444 -66.5072294 250.43981053 -73 209 C-73.17660156 207.90018799 -73.35320312 206.80037598 -73.53515625 205.66723633 C-75.25750049 193.6869481 -75.39831061 181.77605149 -75.375 169.6875 C-75.37445618 168.626521 -75.37391235 167.56554199 -75.37335205 166.47241211 C-75.33452108 149.98198531 -74.55473232 134.158612 -71 118 C-70.78569336 116.98728027 -70.57138672 115.97456055 -70.35058594 114.93115234 C-62.05458696 76.51234483 -45.02261544 41.35246878 -21.1875 10.25 C-20.53986694 9.39100098 -20.53986694 9.39100098 -19.87915039 8.51464844 C-14.2215079 1.30080181 -8.97920073 -1.38032087 0 0 Z " fill="#FDD402" transform="translate(75,87)"/>
<path d="M0 0 C3.45708213 0.56694488 6.12693072 1.40937804 9.17578125 3.125 C9.98724609 3.57552734 10.79871094 4.02605469 11.63476562 4.49023438 C12.96024414 5.23756836 12.96024414 5.23756836 14.3125 6 C16.28673519 7.09559946 18.26206417 8.18922947 20.23828125 9.28125 C21.3154541 9.87679687 22.39262695 10.47234375 23.50244141 11.0859375 C29.28047453 14.24800505 35.10389618 17.32379213 40.92630005 20.40316772 C50.77214203 25.61088221 60.60483655 30.83871093 70.375 36.1875 C71.64428345 36.88129761 71.64428345 36.88129761 72.93920898 37.58911133 C76.7518546 39.67381934 80.56347807 41.76034586 84.37255859 43.8515625 C87.34839517 45.48458927 90.32814219 47.11030269 93.31011963 48.73208618 C95.0216594 49.66523333 96.72938731 50.60536133 98.43701172 51.5456543 C100.00153076 52.3951062 100.00153076 52.3951062 101.59765625 53.26171875 C102.52070557 53.76662842 103.44375488 54.27153809 104.39477539 54.79174805 C109.31558501 57.0739228 114.36683292 57.24675223 119.71484375 57.61328125 C121.22077054 57.72763122 122.72662826 57.84289383 124.23242188 57.95898438 C126.58639038 58.13839747 128.940196 58.31268171 131.2956543 58.47143555 C133.58274088 58.62757434 135.86720622 58.80605755 138.15234375 58.98828125 C138.84939926 59.03012039 139.54645477 59.07195953 140.26463318 59.11506653 C146.4513217 59.64170599 150.1678234 62.07139305 154.375 66.5 C156.10630207 70.22895831 156.17258286 72.17605243 156.1015625 76.21875 C156.08689941 77.30091797 156.07223633 78.38308594 156.05712891 79.49804688 C156.03827637 80.32369141 156.01942383 81.14933594 156 82 C157.41925781 82.74721313 157.41925781 82.74721313 158.8671875 83.50952148 C162.46179744 85.40278592 166.05483383 87.299021 169.64746094 89.19604492 C171.1867633 90.00834801 172.72646144 90.81990167 174.26660156 91.63061523 C184.94326816 97.25156618 195.5145873 103.02963601 206 109 C205.2472618 113.25728245 203.93365575 116.30756153 201.75 120.0625 C201.16734375 121.08472656 200.5846875 122.10695313 199.984375 123.16015625 C197.23482005 127.09505083 194.56665575 129.47778142 190 131 C184.04641739 131.4225925 180.14017319 130.63862889 174.875 127.75 C173.86518066 127.22079956 173.86518066 127.22079956 172.83496094 126.6809082 C170.54600104 125.47284603 168.2727406 124.23828692 166 123 C164.25785067 122.06112708 162.51566163 121.12232785 160.7734375 120.18359375 C157.05278859 118.17182246 153.34563112 116.13732911 149.64453125 114.08984375 C145.89933249 112.02287823 142.12911212 110.02119573 138.32421875 108.06640625 C136.96538574 107.355448 136.96538574 107.355448 135.57910156 106.63012695 C133.8721911 105.73833723 132.15707974 104.86199574 130.43261719 104.00463867 C124.96051017 101.11062626 121.33469913 97.85831802 119 92 C119 90.68 119 89.36 119 88 C117.91847656 88.07863281 116.83695312 88.15726562 115.72265625 88.23828125 C100.9902532 88.6996368 90.56329983 82.96822463 78.04003906 75.74902344 C74.4380597 73.6766993 70.7952532 71.68879285 67.14135742 69.70996094 C64.48841186 68.27235227 61.84403653 66.81968673 59.19921875 65.3671875 C52.20825359 61.54968337 45.16181728 57.83820397 38.11703491 54.12133789 C33.73361162 51.80680543 29.3546526 49.48383328 24.97532654 47.16156006 C20.85264656 44.97669845 16.72155141 42.80875336 12.5859375 40.6484375 C10.80680451 39.70404218 9.02811231 38.75881567 7.25 37.8125 C6.09153564 37.21779907 6.09153564 37.21779907 4.90966797 36.61108398 C-0.94094639 33.46193184 -5.84619048 29.46142857 -8 23 C-8.61840738 16.7463554 -6.8908197 12.89977353 -4 7.5625 C-3.6184375 6.83095703 -3.236875 6.09941406 -2.84375 5.34570312 C-1.90853443 3.55710335 -0.95600621 1.77757404 0 0 Z " fill="#02617F" transform="translate(140,200)"/>
<path d="M0 0 C9.47775587 4.74840332 18.49890521 9.02696821 29 11 C29.75796875 11.18433594 30.5159375 11.36867187 31.296875 11.55859375 C35.03092364 12.16834447 38.72828248 12.14424346 42.5 12.125 C43.59054688 12.13080078 43.59054688 12.13080078 44.703125 12.13671875 C51.54586969 12.12492091 58.11814464 11.52937349 65 11 C65 34.1 65 57.2 65 81 C54.87858138 81 54.87858138 81 50.12109375 78.31640625 C48.51645264 77.43239136 48.51645264 77.43239136 46.87939453 76.53051758 C45.74356934 75.88107178 44.60774414 75.23162598 43.4375 74.5625 C42.21845605 73.88420321 40.99821002 73.20806294 39.77685547 72.53393555 C37.84993402 71.46958034 35.92413255 70.40350461 34.00213623 69.33027649 C27.28187125 65.57787134 20.48087054 61.98339336 13.67288208 58.3934021 C1.31823221 51.87243729 -10.96936918 45.23433643 -23.21972656 38.51953125 C-28.59644491 35.58093843 -33.98633562 32.66661063 -39.375 29.75 C-40.43525391 29.17604492 -41.49550781 28.60208984 -42.58789062 28.01074219 C-45.05844486 26.67355266 -47.52913818 25.33662106 -50 24 C-45.30840802 12.10103482 -40.21885732 2.1160498 -28.25 -3.4375 C-17.68906908 -7.15727659 -9.57257552 -5.02680473 0 0 Z " fill="#FEBD40" transform="translate(191,176)"/>
<path d="M0 0 C4.87944635 2.40915157 9.54734503 5.21015338 14.24462891 7.95239258 C15.41009588 8.62923177 16.5757069 9.30582298 17.74145508 9.98217773 C26.62949566 15.14546342 35.48193883 20.36890427 44.32275391 25.61254883 C48.72055309 28.21828315 53.12857362 30.80600587 57.54150391 33.38598633 C58.17887985 33.75878723 58.8162558 34.13158813 59.47294617 34.51568604 C62.00377844 35.99578887 64.53463337 37.47584244 67.06729126 38.95281982 C71.11432763 41.31300709 75.15032928 43.69122545 79.18212891 46.07739258 C79.77789734 46.42509705 80.37366577 46.77280151 80.98748779 47.13104248 C82.76514673 48.17016694 84.53476593 49.22191995 86.30322266 50.27661133 C87.85481079 51.19253052 87.85481079 51.19253052 89.43774414 52.12695312 C93.30734814 54.87708802 95.67701983 57.56206535 97.18212891 62.07739258 C97.57893339 67.33505203 97.07711037 70.638421 94.18212891 75.07739258 C90.51403921 78.79559279 87.30071302 80.8492777 82.02587891 81.41723633 C77.05620566 80.97784449 73.91056957 79.1603929 69.68212891 76.63989258 C68.90691895 76.19339355 68.13170898 75.74689453 67.33300781 75.28686523 C64.93877831 73.90093806 62.55910296 72.49267886 60.18212891 71.07739258 C59.04662598 70.40571045 59.04662598 70.40571045 57.88818359 69.72045898 C53.63491856 67.20170808 49.40090692 64.65346057 45.18212891 62.07739258 C42.49985213 65.31227559 40.2042993 68.53846316 38.11572266 72.18286133 C37.55256348 73.15868164 36.9894043 74.13450195 36.40917969 75.13989258 C35.81862793 76.17114258 35.22807617 77.20239258 34.61962891 78.26489258 C28.6303965 88.63591247 22.48296035 98.89319155 16.18212891 109.07739258 C15.70582031 108.66602051 15.22951172 108.25464844 14.73876953 107.83081055 C14.11164063 107.29085449 13.48451172 106.75089844 12.83837891 106.19458008 C12.21769531 105.65945801 11.59701172 105.12433594 10.95751953 104.57299805 C9.56960276 103.40380414 8.13393107 102.2912442 6.68212891 101.20239258 C1.55159375 96.84143769 -2.40836852 91.85900801 -5.81787109 86.07739258 C-5.33954834 85.26173828 -4.86122559 84.44608398 -4.3684082 83.60571289 C-2.55856651 80.51935078 -0.74884864 77.43291612 1.06079102 74.34643555 C1.83743572 73.02186313 2.61412684 71.69731793 3.39086914 70.37280273 C8.33190853 61.94716478 13.26495081 53.51698651 18.18212891 45.07739258 C17.48015381 44.81619629 16.77817871 44.555 16.05493164 44.28588867 C12.9500487 42.97976387 10.13339319 41.42725482 7.21728516 39.74145508 C6.08742187 39.08918945 4.95755859 38.43692383 3.79345703 37.76489258 C3.21023682 37.42586914 2.6270166 37.0868457 2.02612305 36.73754883 C0.2555699 35.70874996 -1.51818007 34.68564984 -3.29248047 33.66333008 C-20.40046095 23.75922286 -20.40046095 23.75922286 -22.81787109 17.07739258 C-23.79139336 12.03097105 -22.94089518 7.92096309 -20.14599609 3.62036133 C-14.61567484 -2.80457071 -7.55738894 -3.36448185 0 0 Z " fill="#027B9F" transform="translate(130.81787109375,274.922607421875)"/>
<path d="M0 0 C7.05502271 0 13.83035527 0.06379413 20.8125 0.75 C21.61880859 0.811875 22.42511719 0.87375 23.25585938 0.9375 C29.79070123 1.57869462 33.78321884 3.66654615 38.375 8.5 C40.10630207 12.22895831 40.17258286 14.17605243 40.1015625 18.21875 C40.08689941 19.30091797 40.07223633 20.38308594 40.05712891 21.49804688 C40.0288501 22.73651367 40.0288501 22.73651367 40 24 C40.94617188 24.49814209 41.89234375 24.99628418 42.8671875 25.50952148 C46.46179744 27.40278592 50.05483383 29.299021 53.64746094 31.19604492 C55.1867633 32.00834801 56.72646144 32.81990167 58.26660156 33.63061523 C68.94326816 39.25156618 79.5145873 45.02963601 90 51 C89.2472618 55.25728245 87.93365575 58.30756153 85.75 62.0625 C85.16734375 63.08472656 84.5846875 64.10695313 83.984375 65.16015625 C81.23482005 69.09505083 78.56665575 71.47778142 74 73 C68.04641739 73.4225925 64.14017319 72.63862889 58.875 69.75 C57.86518066 69.22079956 57.86518066 69.22079956 56.83496094 68.6809082 C54.54600104 67.47284603 52.2727406 66.23828692 50 65 C48.25785067 64.06112708 46.51566163 63.12232785 44.7734375 62.18359375 C41.05278859 60.17182246 37.34563112 58.13732911 33.64453125 56.08984375 C29.89933249 54.02287823 26.12911212 52.02119573 22.32421875 50.06640625 C21.41833008 49.59243408 20.51244141 49.11846191 19.57910156 48.63012695 C17.8721911 47.73833723 16.15707974 46.86199574 14.43261719 46.00463867 C8.96051017 43.11062626 5.33469913 39.85831802 3 34 C3 32.68 3 31.36 3 30 C2.01 30 1.02 30 0 30 C0 20.1 0 10.2 0 0 Z " fill="#012D3D" transform="translate(256,258)"/>
</svg>
