<?xml version="1.0" encoding="UTF-8"?>
<svg version="1.1" xmlns="http://www.w3.org/2000/svg" width="512" height="512">
<path d="M0 0 C0.84611847 0.00182281 1.69223694 0.00364563 2.56399536 0.00552368 C16.85968245 0.05706962 30.83046434 0.85489571 44.9375 3.3125 C45.91074219 3.47878906 46.88398438 3.64507813 47.88671875 3.81640625 C98.81766383 12.80422009 146.4571748 34.51725754 183.9375 70.3125 C184.86304688 71.18519531 185.78859375 72.05789062 186.7421875 72.95703125 C193.90029843 79.88194593 199.98231491 87.35115101 205.9375 95.3125 C206.36417969 95.87308105 206.79085938 96.43366211 207.23046875 97.01123047 C233.29242829 131.34285024 248.70291323 174.99233936 254.9375 217.3125 C255.11482666 218.44018799 255.29215332 219.56787598 255.47485352 220.72973633 C257.15486166 232.44343795 257.29480831 244.05566951 257.25 255.875 C257.24784485 256.89573608 257.2456897 257.91647217 257.24346924 258.96813965 C257.19380885 273.60848048 256.89184012 287.92568646 253.9375 302.3125 C253.63948486 303.83133789 253.63948486 303.83133789 253.33544922 305.38085938 C241.52278661 364.45302083 208.45618845 423.13448164 159.21484375 459.17578125 C144.40213049 468.83317595 128.50317082 474.64150983 110.73129272 474.57992554 C109.75398496 474.58445665 108.7766772 474.58898776 107.76975405 474.59365618 C104.52142097 474.60623432 101.27325696 474.60468407 98.02490234 474.60302734 C95.68488349 474.60901677 93.3448666 474.61582327 91.00485229 474.62338257 C84.66571873 474.64100917 78.32663921 474.64573659 71.9874835 474.64701414 C67.35422435 474.64867779 62.72097712 474.65448302 58.08772219 474.6606871 C45.61362155 474.67727894 33.13954938 474.68477395 20.6654381 474.68334763 C19.6049061 474.68322776 19.6049061 474.68322776 18.52294922 474.68310547 C17.46110587 474.68298283 17.46110587 474.68298283 16.37781115 474.68285771 C4.91758143 474.68204562 -6.54251661 474.70116802 -18.00270827 474.7293822 C-29.80044091 474.75819562 -41.59810952 474.77191781 -53.3958782 474.77019465 C-60.00711874 474.76953358 -66.61823803 474.77529624 -73.22945023 474.79655075 C-79.45284811 474.81601301 -85.67595595 474.81600298 -91.89936447 474.80151749 C-94.17281267 474.79943808 -96.44627941 474.80407794 -98.71969604 474.8162384 C-126.78853705 474.95655478 -149.92686308 467.52083623 -170.40625 447.8515625 C-172.52920638 445.82226596 -174.67647932 443.93071624 -176.9375 442.0625 C-197.82491514 423.81303998 -214.22692386 399.73219721 -227.0625 375.3125 C-227.45937012 374.56355469 -227.85624023 373.81460937 -228.26513672 373.04296875 C-239.78741235 350.9947904 -247.57210931 326.75398472 -252.0625 302.3125 C-252.22331055 301.50651367 -252.38412109 300.70052734 -252.54980469 299.87011719 C-257.95338653 272.02774394 -257.70261533 239.0876134 -252.0625 211.3125 C-251.88557617 210.41208984 -251.70865234 209.51167969 -251.52636719 208.58398438 C-250.22740726 202.1093758 -248.71630732 195.70507848 -247.0625 189.3125 C-246.85286621 188.49249512 -246.64323242 187.67249023 -246.42724609 186.82763672 C-239.41237931 160.00481661 -227.27990051 133.82189743 -211.0625 111.3125 C-210.62856934 110.71018555 -210.19463867 110.10787109 -209.74755859 109.48730469 C-195.2496722 89.48370294 -178.88461449 70.24163812 -159.0625 55.3125 C-158.5144873 54.89339355 -157.96647461 54.47428711 -157.40185547 54.04248047 C-124.67231561 29.06679925 -87.57668027 11.90164017 -47.125 4 C-45.99372681 3.77896606 -45.99372681 3.77896606 -44.83959961 3.5534668 C-29.94754564 0.86030692 -15.10544365 -0.06822862 0 0 Z M-68.01953125 71.39453125 C-71.57110265 72.46592955 -74.37249945 72.67494976 -78.0625 72.3125 C-80 70.8125 -80 70.8125 -81.0625 69.3125 C-89.13880173 71.67506797 -89.13880173 71.67506797 -96.0625 76.3125 C-96.10504356 78.31204746 -96.10330783 80.31291636 -96.0625 82.3125 C-99.44822604 86.86571778 -104.20108611 89.34412202 -108.96875 92.3046875 C-114.02635559 95.58702244 -118.76484025 99.2346223 -123.45166016 103.01855469 C-124.51876419 103.87573131 -125.59395544 104.72294366 -126.67724609 105.55957031 C-134.20728833 111.3142425 -134.20728833 111.3142425 -137.375 119.875 C-137.51035156 121.25945312 -137.51035156 121.25945312 -137.6484375 122.671875 C-138.56938968 128.5451172 -142.88413066 132.85267302 -146.515625 137.3515625 C-159.86553934 153.90283103 -173.67133955 174.42543575 -179.0625 195.3125 C-178.7770966 196.98803985 -178.44988516 198.65756144 -178.0625 200.3125 C-177.05872314 200.41796143 -176.05494629 200.52342285 -175.02075195 200.63208008 C-171.28271321 201.02806368 -167.54657401 201.44000451 -163.81079102 201.85668945 C-162.19635358 202.03452515 -160.58143842 202.20807987 -158.96606445 202.37719727 C-156.6387348 202.62161347 -154.31358081 202.88158087 -151.98828125 203.14453125 C-151.27037918 203.21654251 -150.55247711 203.28855377 -149.81282043 203.36274719 C-145.54957046 203.8631645 -142.49856212 204.7075844 -139.0625 207.3125 C-138.4025 208.3025 -137.7425 209.2925 -137.0625 210.3125 C-129.26806635 208.2591193 -121.58593861 205.94573162 -113.9140625 203.4765625 C-111.58473715 202.73405576 -109.25530659 201.99187903 -106.92578125 201.25 C-103.32065287 200.09947898 -99.71628681 198.94675866 -96.11376953 197.78808594 C-76.73481384 191.56227966 -57.45938108 185.84935875 -37.25 183.0625 C-36.10402344 182.89975586 -34.95804688 182.73701172 -33.77734375 182.56933594 C-25.203265 181.38846027 -16.7220899 180.5184675 -8.0625 180.3125 C-7.36914551 180.29203613 -6.67579102 180.27157227 -5.96142578 180.25048828 C19.8091728 179.56076423 49.75060986 180.73781916 73.9375 190.3125 C75.9375 192.3125 75.9375 192.3125 76.9375 198.3125 C82.2175 199.9625 87.4975 201.6125 92.9375 203.3125 C94.2575 201.9925 95.5775 200.6725 96.9375 199.3125 C102.41833612 198.63661676 106.88084659 199.9664351 111.98828125 201.71875 C112.7282988 201.96290649 113.46831635 202.20706299 114.23075867 202.45861816 C116.57387348 203.23352286 118.91199785 204.02231843 121.25 204.8125 C123.60664214 205.60004949 125.96421872 206.38465841 128.32279968 207.16638184 C129.7853958 207.65208078 131.24672201 208.14162413 132.70661926 208.63537598 C136.24419342 209.88371839 136.24419342 209.88371839 139.9375 210.3125 C140.68 209.136875 140.68 209.136875 141.4375 207.9375 C147.37160558 201.70668914 159.92324888 202.54151136 168.0625 201.6875 C169.30515625 201.5534375 170.5478125 201.419375 171.828125 201.28125 C174.86417456 200.95429082 177.90060218 200.63146696 180.9375 200.3125 C180.46271551 193.35445146 178.37997474 187.78387918 175.5625 181.4375 C174.8974646 179.92772583 174.8974646 179.92772583 174.21899414 178.38745117 C166.40444225 161.09366864 155.71641407 146.07277923 143.56640625 131.56640625 C140.0546178 126.70716899 139.87378003 123.51146771 140.5 117.625 C140.53044073 113.44592323 140.46226096 111.10020814 138.12890625 107.59765625 C135.23709453 104.88190613 132.19314441 102.56129677 128.9375 100.3125 C128.26235352 99.83039063 127.58720703 99.34828125 126.89160156 98.8515625 C97.55232354 77.99513392 63.50994205 65.47387659 27.9375 60.3125 C27.26396484 60.209375 26.59042969 60.10625 25.89648438 60 C18.04490424 58.950123 10.09488014 59.06865539 2.1875 59.0625 C1.01899002 59.06148788 1.01899002 59.06148788 -0.17312622 59.06045532 C-23.53748757 59.09253975 -46.24967113 62.60545729 -68.01953125 71.39453125 Z M-152.87988281 278.25952148 C-156.43186851 280.55076479 -158.75136253 281.01835394 -162.921875 281.47265625 C-164.20191406 281.62669922 -165.48195313 281.78074219 -166.80078125 281.93945312 C-168.13784435 282.08625185 -169.47508778 282.23141677 -170.8125 282.375 C-173.45556312 282.66272987 -176.09435222 282.96883401 -178.734375 283.28515625 C-179.9006543 283.41156494 -181.06693359 283.53797363 -182.26855469 283.66821289 C-185.3829786 284.04991154 -185.3829786 284.04991154 -187.0625 287.3125 C-186.88108783 289.77088102 -186.88108783 289.77088102 -186.15625 292.4765625 C-185.91036133 293.50749023 -185.66447266 294.53841797 -185.41113281 295.60058594 C-185.13108398 296.70176758 -184.85103516 297.80294922 -184.5625 298.9375 C-184.13855957 300.63567871 -184.13855957 300.63567871 -183.70605469 302.36816406 C-178.0471566 324.51906769 -169.29334757 345.56490327 -156.0625 364.3125 C-154.96808594 365.86324219 -154.96808594 365.86324219 -153.8515625 367.4453125 C-149.35728681 373.61114336 -144.53567051 379.27592665 -139.32421875 384.83984375 C-137.0625 387.3125 -137.0625 387.3125 -135 389.91796875 C-132.07750577 393.52984166 -128.62312908 396.34848257 -125.0625 399.3125 C-124.37027344 399.90417969 -123.67804688 400.49585938 -122.96484375 401.10546875 C-109.00549767 412.58202732 -93.79432626 415.8628827 -76.14746094 415.75854492 C-73.90471082 415.74987322 -71.66438536 415.77918479 -69.421875 415.81054688 C-67.98697992 415.81215548 -66.55208036 415.8115879 -65.1171875 415.80859375 C-63.83312012 415.81044678 -62.54905273 415.8122998 -61.22607422 415.81420898 C-58.02046646 415.61710755 -58.02046646 415.61710755 -56.2109375 413.51367188 C-54.17219796 409.60608776 -52.85892592 405.4211611 -51.48828125 401.24414062 C-49.57705154 395.7915147 -47.17021316 391.90160987 -41.82421875 389.16796875 C-41.13972656 388.94753906 -40.45523438 388.72710937 -39.75 388.5 C-38.533125 388.108125 -37.31625 387.71625 -36.0625 387.3125 C-36.08570313 386.12011719 -36.10890625 384.92773438 -36.1328125 383.69921875 C-36.15157178 382.13281876 -36.16977181 380.566412 -36.1875 379 C-36.20425781 378.21431641 -36.22101563 377.42863281 -36.23828125 376.61914062 C-36.24472656 375.86181641 -36.25117188 375.10449219 -36.2578125 374.32421875 C-36.26828613 373.62772217 -36.27875977 372.93122559 -36.28955078 372.21362305 C-36.0625 370.3125 -36.0625 370.3125 -34.0625 367.3125 C-33.0725 366.9825 -32.0825 366.6525 -31.0625 366.3125 C-30.68696004 357.69623256 -30.68696004 357.69623256 -32.0625 349.3125 C-33.196875 348.920625 -34.33125 348.52875 -35.5 348.125 C-39.0625 346.3125 -39.0625 346.3125 -39.93359375 343.75 C-40.57047846 339.8003274 -41.07833855 335.92803165 -41.0390625 331.921875 C-40.97735808 329.58681486 -40.97735808 329.58681486 -42.0625 326.3125 C-43.94343795 325.19284007 -43.94343795 325.19284007 -46.3125 324.3125 C-54.84158365 320.67974215 -59.67558274 312.52506263 -65.0625 305.3125 C-65.61856934 304.57273926 -66.17463867 303.83297852 -66.74755859 303.07080078 C-71.13427936 297.23252553 -71.13427936 297.23252553 -73.10498047 294.54174805 C-73.56662598 293.91437744 -74.02827148 293.28700684 -74.50390625 292.640625 C-75.10247437 291.81933105 -75.10247437 291.81933105 -75.71313477 290.98144531 C-78.98089898 286.9397525 -81.09956649 284.87737456 -86.36254883 284.13989258 C-87.42077347 283.98325638 -88.47899811 283.82662018 -89.56929016 283.66523743 C-90.70786972 283.51402939 -91.84644928 283.36282135 -93.01953125 283.20703125 C-94.19585617 283.03749435 -95.37218109 282.86795746 -96.58415222 282.69328308 C-100.34573625 282.15482761 -104.11009007 281.63963144 -107.875 281.125 C-110.39930562 280.76780679 -112.92339757 280.4091001 -115.44726562 280.04882812 C-121.08855226 279.24658601 -126.73183987 278.46029776 -132.37675476 277.68403625 C-134.65078175 277.36945561 -136.92359495 277.04811808 -139.19580078 276.72070312 C-146.35799716 275.59891959 -146.35799716 275.59891959 -152.87988281 278.25952148 Z M132.1171875 277.9921875 C130.29104416 278.25142502 130.29104416 278.25142502 128.42800903 278.51589966 C125.86420967 278.88138159 123.30080931 279.24967226 120.73779297 279.62060547 C116.81983199 280.18644111 112.90030494 280.74029101 108.98046875 281.29296875 C106.48427206 281.65032335 103.98817471 282.00837267 101.4921875 282.3671875 C100.32332001 282.53185516 99.15445251 282.69652283 97.95016479 282.86618042 C96.30783371 283.10620285 96.30783371 283.10620285 94.63232422 283.35107422 C93.67494354 283.48875214 92.71756287 283.62643005 91.73117065 283.76828003 C86.81153128 284.72664854 82.91281135 285.66126211 79.6875 289.625 C79.0996875 290.34042969 78.511875 291.05585938 77.90625 291.79296875 C75.65913281 294.66874373 73.4149864 297.54649778 71.1875 300.4375 C70.76557373 300.9845459 70.34364746 301.5315918 69.90893555 302.09521484 C67.6403419 305.05003788 65.41514784 308.02766071 63.23828125 311.05078125 C62.32568514 312.28397578 61.4129288 313.51705175 60.5 314.75 C60.10651367 315.3167041 59.71302734 315.8834082 59.30761719 316.46728516 C56.42862861 320.30329394 53.80030958 321.88991851 49.39111328 323.79785156 C45.27270341 325.99238498 45.27270341 325.99238498 42.73356628 329.75428772 C42.08780734 332.766302 41.76740441 335.66540799 41.55078125 338.73828125 C41.4331694 339.84044479 41.31555756 340.94260834 41.19438171 342.07817078 C40.83152222 345.59094828 40.54045328 349.10557398 40.25 352.625 C40.01565501 354.97897682 39.77676779 357.33250614 39.53320312 359.68554688 C38.61028795 368.91473942 37.79471239 378.03130562 37.9375 387.3125 C38.60136719 387.5084375 39.26523437 387.704375 39.94921875 387.90625 C45.55439065 389.80464399 49.02601116 391.459606 51.8515625 396.75 C53.73849488 401.20261742 55.31508028 405.74461719 56.82421875 410.3359375 C57.72811598 413.37950839 57.72811598 413.37950839 59.9375 415.3125 C64.43846863 415.71781415 68.95610755 415.64132386 73.47338867 415.62817383 C75.70348372 415.62506485 77.93218361 415.64827663 80.16210938 415.67382812 C99.5947728 415.76257972 115.25023506 410.65479063 129.21875 396.9609375 C131.1405861 395.08880406 133.01595986 393.3822344 135.08203125 391.69140625 C138.84708397 388.55472074 141.82492164 385.0835084 144.9375 381.3125 C145.7521875 380.33539063 146.566875 379.35828125 147.40625 378.3515625 C169.09269759 351.86000075 183.89229964 320.29340834 188.9375 286.3125 C188.6075 285.6525 188.2775 284.9925 187.9375 284.3125 C185.12558387 283.71694159 185.12558387 283.71694159 181.70703125 283.3828125 C180.42892578 283.22683594 179.15082031 283.07085937 177.83398438 282.91015625 C175.79836902 282.67199537 173.76240024 282.43887265 171.7253418 282.21337891 C169.75928029 281.99218199 167.79559543 281.75017918 165.83203125 281.5078125 C164.65487549 281.37391113 163.47771973 281.24000977 162.26489258 281.10205078 C158.9375 280.3125 158.9375 280.3125 156.0065918 278.23779297 C149.18339549 273.95748702 139.69774316 276.8941955 132.1171875 277.9921875 Z " fill="#010101" transform="translate(255.0625,18.6875)"/>
<path d="M0 0 C2.87306228 0.50095023 2.87306228 0.50095023 6 0 C6.70125 -0.886875 7.4025 -1.77375 8.125 -2.6875 C11 -5 11 -5 13.83984375 -4.734375 C16.96695036 -3.96112682 19.9709163 -3.09580332 23 -2 C24.11181641 -1.69255859 24.11181641 -1.69255859 25.24609375 -1.37890625 C27.45185959 0.35524819 27.36502103 1.2422479 27.859375 3.9453125 C28.59513125 7.52607658 28.59513125 7.52607658 31.640625 9.7421875 C33.42726563 10.30292969 33.42726563 10.30292969 35.25 10.875 C36.24773437 11.20491943 36.24773437 11.20491943 37.265625 11.54150391 C38.85301635 12.06340015 40.44537207 12.57031289 42.04101562 13.06640625 C45.6212499 14.19601152 49.17778138 15.39236434 52.734375 16.59375 C60.14633441 19.09296241 67.57005043 21.55479199 75 24 C75.33 26.64 75.66 29.28 76 32 C75.25719788 32.00586624 74.51439575 32.01173248 73.74908447 32.01777649 C66.74522933 32.07570578 59.74169563 32.14778347 52.73816299 32.23571491 C49.13763929 32.28042253 45.53722883 32.31967741 41.93652344 32.34643555 C38.46092359 32.37246521 34.98575943 32.41286421 31.51042938 32.46318626 C29.54076478 32.48796499 27.57093161 32.49790086 25.60113525 32.50764465 C24.40019226 32.52743881 23.19924927 32.54723297 21.96191406 32.56762695 C20.90490295 32.57873001 19.84789185 32.58983307 18.7588501 32.60127258 C15.64370963 33.05149346 14.24922194 33.83215538 12 36 C11.33740346 38.83568858 11.71832307 41.04239226 12 44 C14.76421247 46.76421247 16.41284293 46.27467121 20.28564453 46.31884766 C20.92967224 46.32889328 21.57369995 46.3389389 22.23724365 46.34928894 C24.36909073 46.38021583 26.50081171 46.39718194 28.6328125 46.4140625 C30.10970146 46.43276656 31.58657965 46.4523394 33.06344604 46.4727478 C36.95304017 46.52415576 40.84266898 46.56373485 44.73242188 46.60089111 C48.70060872 46.64087667 52.66865022 46.69199378 56.63671875 46.7421875 C64.42437959 46.83904926 72.21211052 46.92342095 80 47 C81.62950412 51.12168689 82.26264601 53.70700357 81 58 C80.23071671 58.10609085 79.46143341 58.2121817 78.6688385 58.32148743 C71.3859344 59.32741897 64.10425172 60.34162505 56.82376957 61.36492634 C53.08160779 61.89061046 49.33906909 62.41318943 45.59545898 62.9284668 C41.97634944 63.42672773 38.35850713 63.93341293 34.74136162 64.44573021 C33.36763029 64.63883298 31.99348267 64.8289999 30.61891365 65.01604652 C15.7167064 66.63686802 15.7167064 66.63686802 4 75 C3.52643066 75.55816406 3.05286133 76.11632812 2.56494141 76.69140625 C0.95512286 78.60792957 -0.61906874 80.5494879 -2.1875 82.5 C-2.75267334 83.19834961 -3.31784668 83.89669922 -3.90014648 84.61621094 C-8.32906875 90.11039604 -12.63572539 95.68963171 -16.87890625 101.328125 C-21.63272727 107.31636364 -21.63272727 107.31636364 -25 109 C-27.47555739 109.10844386 -29.92341468 109.1573077 -32.3996582 109.16113281 C-33.5438472 109.16858017 -33.5438472 109.16858017 -34.71115112 109.17617798 C-37.24103693 109.19081288 -39.77086002 109.19760423 -42.30078125 109.203125 C-44.05714419 109.20887591 -45.8135071 109.21463366 -47.56987 109.22039795 C-51.25613701 109.2309121 -54.9423822 109.23675187 -58.62866211 109.24023438 C-63.34990272 109.24571616 -68.0708545 109.26973562 -72.79200459 109.29820633 C-76.42171569 109.31684095 -80.05135739 109.32203877 -83.68111229 109.32357025 C-85.42142501 109.32659609 -87.16173654 109.3346223 -88.90200233 109.34775543 C-91.33894348 109.36483131 -93.77518132 109.36293199 -96.2121582 109.35644531 C-96.92974808 109.3656601 -97.64733795 109.37487488 -98.38667297 109.3843689 C-102.77743649 109.34780124 -105.49588484 108.66380902 -109 106 C-111.18359375 103.49609375 -111.18359375 103.49609375 -113.4375 100.4375 C-114.30391146 99.27936695 -115.17114905 98.12185163 -116.0390625 96.96484375 C-116.50731445 96.33562012 -116.97556641 95.70639648 -117.45800781 95.05810547 C-120.36832151 91.17369375 -123.34111539 87.33776177 -126.3125 83.5 C-126.89894287 82.73486084 -127.48538574 81.96972168 -128.08959961 81.18139648 C-129.7004491 79.09848467 -131.34074366 77.04445033 -133 75 C-133.75667969 74.0615625 -134.51335937 73.123125 -135.29296875 72.15625 C-141.82981867 66.94940851 -151.21303333 66.32369209 -159.2734375 65.24609375 C-160.31843414 65.09970963 -161.36343079 64.9533255 -162.44009399 64.80250549 C-165.75075723 64.34014195 -169.06275795 63.8884001 -172.375 63.4375 C-175.67976381 62.98084437 -178.98420657 62.52195362 -182.28848267 62.06178284 C-184.33401224 61.77763614 -186.37986928 61.49583216 -188.42611694 61.21690369 C-207.92876214 58.53561893 -207.92876214 58.53561893 -211 57 C-210.85950482 55.52031676 -210.71245174 54.04125484 -210.5625 52.5625 C-210.48128906 51.73878906 -210.40007812 50.91507812 -210.31640625 50.06640625 C-210 48 -210 48 -209 47 C-206.98615639 46.8867624 -204.96837135 46.84315008 -202.95141602 46.82641602 C-201.65659805 46.81292618 -200.36178009 46.79943634 -199.02772522 46.78553772 C-197.98324565 46.7779478 -197.98324565 46.7779478 -196.91766548 46.77020454 C-194.74522909 46.75384089 -192.57296907 46.73060584 -190.40061951 46.70530701 C-184.2228163 46.63439962 -178.04494098 46.57435757 -171.86694336 46.52319336 C-168.09205613 46.49144822 -164.31737067 46.45018395 -160.54264641 46.40299797 C-159.10134439 46.38695009 -157.65999583 46.37464144 -156.21862984 46.36609077 C-154.20500596 46.35397319 -152.19147336 46.32879466 -150.17797852 46.30297852 C-149.03071793 46.29267105 -147.88345734 46.28236359 -146.70143127 46.27174377 C-143.85093599 46.27279177 -143.85093599 46.27279177 -142 44 C-141.52786327 39.93904042 -141.52786327 39.93904042 -142 36 C-145.17986131 32.94576709 -147.5376468 32.61391403 -151.87011719 32.56762695 C-153.05103943 32.54783279 -154.23196167 32.52803864 -155.44866943 32.50764465 C-156.71857727 32.50125473 -157.98848511 32.49486481 -159.296875 32.48828125 C-160.60078186 32.47033005 -161.90468872 32.45237885 -163.24810791 32.43388367 C-166.70695993 32.38643011 -170.16574694 32.3565912 -173.62481689 32.33044434 C-177.15756062 32.30061503 -180.69008043 32.25409294 -184.22265625 32.20898438 C-191.14830983 32.12300455 -198.07403801 32.05563578 -205 32 C-204.67 29.36 -204.34 26.72 -204 24 C-197.43393035 21.29098062 -190.83449768 18.86372201 -184.07421875 16.6875 C-183.16477005 16.39190186 -182.25532135 16.09630371 -181.3183136 15.79174805 C-179.408767 15.17175755 -177.49870015 14.55336728 -175.58813477 13.93652344 C-172.70412245 13.00536686 -169.82165783 12.06954746 -166.93945312 11.1328125 C-157.31648074 8.01011853 -147.68685861 4.91957246 -138 2 C-137.2562915 1.77199707 -136.51258301 1.54399414 -135.74633789 1.30908203 C-98.28748357 -9.99335105 -36.51912281 -18.25956141 0 0 Z " fill="#C8C1C9" transform="translate(321,222)"/>
<path d="M0 0 C4.14733871 1.54232097 5.89055658 4.22808835 8.4375 7.75 C24.24533992 29.02539382 44.9083192 48.55446726 72 53 C78.05765423 53.58767202 84.12863589 53.57851221 90.20922852 53.52148438 C92.95872194 53.49983288 95.70565823 53.5215055 98.45507812 53.546875 C100.22917235 53.54423464 102.003265 53.53911571 103.77734375 53.53125 C104.5858226 53.53934692 105.39430145 53.54744385 106.22727966 53.55578613 C111.81418713 53.46451835 116.44638959 52.3708629 121 49 C126.52179359 42.6601286 126.52179359 42.6601286 131 27 C156.08 27 181.16 27 207 27 C208.98 32.61 210.96 38.22 213 44 C217.61272402 49.53526883 219.94703762 52.32878526 227.04904175 53.27218628 C229.32943172 53.41117051 231.58653616 53.44209792 233.87109375 53.43359375 C235.13107933 53.44145653 235.13107933 53.44145653 236.41651917 53.44947815 C238.19067283 53.45587577 239.96486905 53.45459074 241.73901367 53.44604492 C244.39908535 53.43762164 247.05694159 53.46618493 249.71679688 53.49804688 C270.8086862 53.58633759 288.98233103 48.33800459 305 34 C305.51981445 33.53899902 306.03962891 33.07799805 306.57519531 32.60302734 C317.72881608 22.67611066 326.85859951 11.76975977 336 0 C339.77460263 1.6553679 342.85062626 4.09038885 346.0625 6.625 C351.95010763 11.2170481 357.93257411 15.6470171 364 20 C360.8681162 28.8920319 353.41534668 35.77252735 347.15625 42.62109375 C345.20384564 44.77510509 343.31722641 46.97027726 341.4375 49.1875 C338.56431363 52.48243849 335.48745931 55.34384398 332.14453125 58.15625 C330.64472237 59.44570317 329.1861691 60.78400463 327.76171875 62.15625 C313.07959119 76.1895765 294.34201887 83.34007623 274.09077454 83.26742554 C273.14542963 83.27195665 272.20008472 83.27648776 271.22609299 83.28115618 C268.08598046 83.29372802 264.94604298 83.29218449 261.8059082 83.29052734 C259.54308349 83.29651713 257.28026081 83.30332371 255.0174408 83.31088257 C248.88911108 83.32850461 242.76083728 83.33323637 236.63248467 83.33451414 C232.79801053 83.33593853 228.96355046 83.3402136 225.12907982 83.34550858 C212.42582727 83.36304394 199.72262103 83.37235038 187.01935933 83.37084763 C186.33597124 83.37076772 185.65258315 83.3706878 184.94848633 83.37060547 C184.26425337 83.37052371 183.58002042 83.37044195 182.87505313 83.37035771 C171.79567098 83.36954546 160.71642499 83.38867236 149.6370822 83.4168822 C138.23146088 83.44569113 126.82593338 83.45905281 115.42026967 83.45769465 C109.0287018 83.45718627 102.63728811 83.46280084 96.24575233 83.48405075 C90.23001062 83.50350626 84.214569 83.50350757 78.1988163 83.48901749 C76.0007381 83.48693731 73.80264075 83.49158261 71.60459518 83.5037384 C56.41693843 83.58223822 42.61795187 82.59945282 28.875 75.4375 C28.2145166 75.09871826 27.5540332 74.75993652 26.87353516 74.41088867 C19.72659664 70.57093506 13.91585784 65.48879591 8 60 C6.77704951 58.89471718 5.55306012 57.79058294 4.328125 56.6875 C-1.83691372 51.0964616 -7.74474751 45.46800306 -13 39 C-14.10092116 37.686962 -15.20256089 36.37452635 -16.3046875 35.0625 C-17.51656045 33.60494393 -18.72748676 32.14660031 -19.9375 30.6875 C-20.53054932 29.98069092 -21.12359863 29.27388184 -21.73461914 28.5456543 C-22.28496826 27.87445557 -22.83531738 27.20325684 -23.40234375 26.51171875 C-23.90241943 25.90803467 -24.40249512 25.30435059 -24.91772461 24.68237305 C-26 23 -26 23 -26 20 C-23.8671875 18.125 -23.8671875 18.125 -20.875 16 C-19.78258725 15.21138743 -18.69149916 14.42093748 -17.6015625 13.62890625 C-17.02051758 13.20883301 -16.43947266 12.78875977 -15.84082031 12.35595703 C-12.58551299 9.95808212 -9.4207944 7.44543612 -6.25 4.9375 C-5.31969971 4.20370117 -5.31969971 4.20370117 -4.37060547 3.45507812 C-2.91276976 2.30460998 -1.45623497 1.15249365 0 0 Z " fill="#D53030" transform="translate(87,395)"/>
<path d="M0 0 C23.10048718 9.30436289 39.48155759 50.30496879 48.6875 71.5625 C52.22887276 79.91511669 55.5197801 88.26323724 58 97 C58.27054199 97.94601074 58.54108398 98.89202148 58.81982422 99.86669922 C71.20571875 144.03832638 74.18910631 191.59052667 61 236 C60.79149414 236.71849121 60.58298828 237.43698242 60.36816406 238.17724609 C53.91628245 260.26253314 45.12203233 281.38727659 33 301 C29.60172977 300.38948105 27.60257643 299.157783 24.91796875 297.015625 C24.15033203 296.40976562 23.38269531 295.80390625 22.59179688 295.1796875 C21.79837891 294.54289062 21.00496094 293.90609375 20.1875 293.25 C18.61953057 292.00389734 17.05053436 290.75908548 15.48046875 289.515625 C14.72813965 288.91943359 13.97581055 288.32324219 13.20068359 287.70898438 C10.19718072 285.37655481 7.11569617 283.17973938 4 281 C5.36718258 276.42200983 7.25912526 272.58013724 9.625 268.4375 C19.42722888 250.59744343 27.82845718 228.34568583 30 208 C30.09410156 207.14277344 30.18820312 206.28554688 30.28515625 205.40234375 C30.59759523 200.09088111 29.94324913 196.13503251 26.70458984 191.81274414 C20.82847752 185.56379914 11.47586857 185.07370263 3.4375 184.25 C2.33341797 184.12496094 1.22933594 183.99992188 0.09179688 183.87109375 C-2.60430865 183.56763599 -5.30113031 183.27759437 -8 183 C-9.08850294 178.57594946 -10.17265302 174.15086038 -11.25317383 169.72485352 C-11.61955856 168.22653029 -11.98703104 166.72847254 -12.35571289 165.23071289 C-14.82486704 155.195774 -17.06318033 145.15227923 -19 135 C-15.92929752 133.97643251 -13.52289726 133.77275579 -10.30078125 133.60546875 C-8.60985352 133.50202148 -8.60985352 133.50202148 -6.88476562 133.39648438 C-4.52337955 133.25833877 -2.16136229 133.130551 0.20117188 133.01367188 C7.89140804 132.51964306 14.07793223 131.74230633 19.875 126.2109375 C23.20758242 120.77234813 23.67180387 116.29355988 23 110 C22.13106337 106.64906192 20.87716447 103.54674733 19.5 100.375 C18.95533081 99.0758667 18.95533081 99.0758667 18.3996582 97.75048828 C9.65765226 77.19950347 -1.16793436 58.49493768 -15.75415039 41.52368164 C-19.03383395 37.51260872 -19.03383395 37.51260872 -18.8137207 34.17773438 C-17.94306602 30.77766196 -16.71321568 28.20431736 -14.98046875 25.15625 C-14.37009766 24.07472656 -13.75972656 22.99320313 -13.13085938 21.87890625 C-12.16889648 20.20634766 -12.16889648 20.20634766 -11.1875 18.5 C-10.55779297 17.38496094 -9.92808594 16.26992187 -9.27929688 15.12109375 C-6.34839619 9.96049422 -3.40096523 4.86586461 0 0 Z " fill="#E74343" transform="translate(428,102)"/>
<path d="M0 0 C4.46413431 3.76767311 6.12066346 9.61447869 8.35327148 14.85961914 C9.18262488 16.80108762 10.03090416 18.73349365 10.88085938 20.66601562 C11.41523716 21.90834956 11.94847792 23.15117331 12.48046875 24.39453125 C13.20592896 26.07832886 13.20592896 26.07832886 13.94604492 27.79614258 C15.04375765 31.13301637 15.36022962 33.51554159 15 37 C13.42905838 39.39898936 11.91828786 41.41242369 10.0625 43.5625 C9.04146537 44.80499154 8.02328279 46.04983169 7.0078125 47.296875 C6.49766602 47.91884766 5.98751953 48.54082031 5.46191406 49.18164062 C-7.35184687 65.11966524 -16.4908233 83.08690275 -24 102 C-24.29874023 102.74419189 -24.59748047 103.48838379 -24.90527344 104.25512695 C-27.33331134 110.46961095 -28.26383994 115.47832359 -25.5625 121.8125 C-25.046875 122.864375 -24.53125 123.91625 -24 125 C-23.67 125.99 -23.34 126.98 -23 128 C-20.75256244 129.15020525 -20.75256244 129.15020525 -18 130 C-17.08589355 130.33177246 -16.17178711 130.66354492 -15.22998047 131.00537109 C-11.94142086 132.01803865 -8.92627977 132.49343736 -5.5078125 132.8515625 C-4.30898437 132.98046875 -3.11015625 133.109375 -1.875 133.2421875 C-0.6375 133.36851562 0.6 133.49484375 1.875 133.625 C3.13570313 133.7590625 4.39640625 133.893125 5.6953125 134.03125 C8.79629701 134.3601423 11.89779608 134.68285192 15 135 C14.36253948 142.80670824 12.74514357 150.33807374 11.04370117 157.96630859 C10.56224477 160.12614496 10.08818563 162.28750574 9.61523438 164.44921875 C8.23934796 170.68914422 6.80374854 176.86932314 5 183 C3.78268188 183.15033691 3.78268188 183.15033691 2.54077148 183.30371094 C-1.16249381 183.77008917 -4.86231419 184.25981226 -8.5625 184.75 C-9.83931641 184.90726563 -11.11613281 185.06453125 -12.43164062 185.2265625 C-23.91168368 186.7727977 -23.91168368 186.7727977 -32.4375 194.125 C-39.47096813 208.64865498 -28.24165335 232.54269047 -23.4453125 246.38671875 C-19.76211767 256.62257416 -15.24164622 266.50324268 -9.73828125 275.890625 C-8 279 -8 279 -8 281 C-10.40201062 282.93185547 -12.81671519 284.75887057 -15.3125 286.5625 C-22.05280803 291.51560515 -28.59031013 296.62237884 -35 302 C-40.0285738 297.38111647 -42.59925478 291.69611489 -45.6875 285.6875 C-45.99647217 285.08764282 -46.30544434 284.48778564 -46.6237793 283.86975098 C-64.41390228 249.1884373 -73.2210488 212.19231288 -73.25 173.25 C-73.25067474 172.43119354 -73.25134949 171.61238708 -73.25204468 170.76876831 C-73.2344922 157.31225049 -72.52995405 144.2473972 -70 131 C-69.83371094 130.10925781 -69.66742188 129.21851563 -69.49609375 128.30078125 C-60.03351359 79.16545762 -35.53880387 35.04175766 0 0 Z " fill="#E74343" transform="translate(88,102)"/>
<path d="M0 0 C1.61964265 0.23151363 3.2394274 0.46203609 4.859375 0.69140625 C15.5045846 2.26111783 25.723588 4.83493285 36 8 C37.21961426 8.3710083 37.21961426 8.3710083 38.46386719 8.74951172 C69.70351936 18.36032012 97.55992489 32.52751352 123 53 C121.40799441 58.85014103 118.44263127 63.70518486 115.375 68.875 C114.859375 69.75414063 114.34375 70.63328125 113.8125 71.5390625 C112.54664427 73.6957056 111.27571593 75.84917988 110 78 C107.25019327 76.71458073 104.97243359 75.3068007 102.62890625 73.3828125 C84.71379921 58.98854183 65.40363771 49.20295555 44 41 C43.18982422 40.68804687 42.37964844 40.37609375 41.54492188 40.0546875 C-8.46772014 21.02674144 -64.28732287 20.95744932 -114.3137207 39.74072266 C-116.85592932 40.93246237 -118.34768093 41.75179139 -120 44 C-120.12181641 45.70349609 -120.12181641 45.70349609 -120.24609375 47.44140625 C-121 51 -121 51 -124.16015625 53.21484375 C-125.44864513 53.81613856 -126.75033189 54.38980129 -128.0625 54.9375 C-128.72572266 55.23978516 -129.38894531 55.54207031 -130.07226562 55.85351562 C-131.70412331 56.59313458 -133.35080559 57.29989037 -135 58 C-135.515625 57.505 -136.03125 57.01 -136.5625 56.5 C-139.92469509 54.43095687 -142.10829313 54.57652809 -146 55 C-148.82855652 56.27266583 -148.82855652 56.27266583 -151.4375 58.25 C-152.46230469 58.97445312 -153.48710937 59.69890625 -154.54296875 60.4453125 C-155.69733985 61.29412471 -156.84954905 62.14588208 -158 63 C-158.65307129 63.48178711 -159.30614258 63.96357422 -159.97900391 64.45996094 C-164.01890946 67.44775816 -168.03286648 70.46828551 -172.03320312 73.50878906 C-175.34501258 76.01977865 -178.67275745 78.50951607 -182 81 C-183.842305 76.89980233 -185.67229455 72.79422392 -187.5 68.6875 C-188.02464844 67.52025391 -188.54929687 66.35300781 -189.08984375 65.15039062 C-189.58613281 64.03212891 -190.08242187 62.91386719 -190.59375 61.76171875 C-191.05458984 60.73006592 -191.51542969 59.69841309 -191.99023438 58.63549805 C-193 56 -193 56 -193 53 C-191.7409668 51.65649414 -191.7409668 51.65649414 -189.94921875 50.28515625 C-189.28011475 49.76977295 -188.61101074 49.25438965 -187.92163086 48.72338867 C-187.18436768 48.17529541 -186.44710449 47.62720215 -185.6875 47.0625 C-184.92638916 46.49055908 -184.16527832 45.91861816 -183.38110352 45.3293457 C-170.04547641 35.45497742 -156.04943223 26.97474285 -141 20 C-140.29020996 19.66516602 -139.58041992 19.33033203 -138.84912109 18.98535156 C-120.7586779 10.48112645 -102.54991973 5.0665324 -83 1 C-82.15872559 0.82033691 -81.31745117 0.64067383 -80.45068359 0.45556641 C-53.99244665 -5.0636126 -26.56126384 -4.11205562 0 0 Z " fill="#8F808F" transform="translate(294,37)"/>
<path d="M0 0 C2.87306228 0.50095023 2.87306228 0.50095023 6 0 C7.051875 -1.3303125 7.051875 -1.3303125 8.125 -2.6875 C11 -5 11 -5 13.83984375 -4.734375 C16.96695036 -3.96112682 19.9709163 -3.09580332 23 -2 C24.11181641 -1.69255859 24.11181641 -1.69255859 25.24609375 -1.37890625 C27.45185959 0.35524819 27.36502103 1.2422479 27.859375 3.9453125 C28.59513125 7.52607658 28.59513125 7.52607658 31.640625 9.7421875 C33.42726563 10.30292969 33.42726563 10.30292969 35.25 10.875 C36.24773437 11.20491943 36.24773437 11.20491943 37.265625 11.54150391 C38.85301635 12.06340015 40.44537207 12.57031289 42.04101562 13.06640625 C45.6212499 14.19601152 49.17778138 15.39236434 52.734375 16.59375 C60.14633441 19.09296241 67.57005043 21.55479199 75 24 C75.33 26.64 75.66 29.28 76 32 C75.25719788 32.00586624 74.51439575 32.01173248 73.74908447 32.01777649 C66.74522933 32.07570578 59.74169563 32.14778347 52.73816299 32.23571491 C49.13763929 32.28042253 45.53722883 32.31967741 41.93652344 32.34643555 C38.46092359 32.37246521 34.98575943 32.41286421 31.51042938 32.46318626 C29.54076478 32.48796499 27.57093161 32.49790086 25.60113525 32.50764465 C24.40019226 32.52743881 23.19924927 32.54723297 21.96191406 32.56762695 C20.90490295 32.57873001 19.84789185 32.58983307 18.7588501 32.60127258 C15.64370963 33.05149346 14.24922194 33.83215538 12 36 C11.33740346 38.83568858 11.71832307 41.04239226 12 44 C14.76421247 46.76421247 16.41284293 46.27467121 20.28564453 46.31884766 C20.92967224 46.32889328 21.57369995 46.3389389 22.23724365 46.34928894 C24.36909073 46.38021583 26.50081171 46.39718194 28.6328125 46.4140625 C30.10970146 46.43276656 31.58657965 46.4523394 33.06344604 46.4727478 C36.95304017 46.52415576 40.84266898 46.56373485 44.73242188 46.60089111 C48.70060872 46.64087667 52.66865022 46.69199378 56.63671875 46.7421875 C64.42437959 46.83904926 72.21211052 46.92342095 80 47 C81.62950412 51.12168689 82.26264601 53.70700357 81 58 C80.23071671 58.10609085 79.46143341 58.2121817 78.6688385 58.32148743 C71.3859344 59.32741897 64.10425172 60.34162505 56.82376957 61.36492634 C53.08160779 61.89061046 49.33906909 62.41318943 45.59545898 62.9284668 C41.97634944 63.42672773 38.35850713 63.93341293 34.74136162 64.44573021 C33.36763029 64.63883298 31.99348267 64.8289999 30.61891365 65.01604652 C15.66261446 66.56754 15.66261446 66.56754 4 75 C3.33910273 76.32009907 2.69852242 77.65048767 2.07421875 78.98828125 C-0.6967334 84.35291308 -3.44087378 88.319707 -9 91 C-21.84284226 93.66907829 -36.02250875 91.95079894 -49 91 C-46.73407038 88.66280713 -44.53271358 87.01034448 -41.75 85.3125 C-34.30824621 80.41183287 -29.38149173 74.20324845 -26 66 C-25.7009375 65.32453125 -25.401875 64.6490625 -25.09375 63.953125 C-21.61882596 55.13711402 -21.88779935 45.32264785 -24.94921875 36.4140625 C-28.56974692 28.09626915 -33.42986229 20.2780957 -41.1875 15.375 C-42.06792969 14.80523437 -42.94835937 14.23546875 -43.85546875 13.6484375 C-50.87112611 9.97066432 -57.41048803 8.43500967 -65.3125 8.5 C-66.14064209 8.50644531 -66.96878418 8.51289063 -67.82202148 8.51953125 C-78.31758201 8.83035935 -86.6902803 12.71173825 -94.671875 19.49609375 C-103.69874178 29.20451927 -107.4008158 40.47300748 -107.125 53.5 C-107.11146484 54.73363281 -107.11146484 54.73363281 -107.09765625 55.9921875 C-107.07436865 57.99492083 -107.03850959 59.99750154 -107 62 C-114.90005793 54.4792768 -117.86657247 44.0317753 -118.23999023 33.27734375 C-118.33040142 27.93381655 -118.26279105 22.59329691 -118.1875 17.25 C-118.17242104 15.37761497 -118.15873834 13.50521815 -118.14648438 11.6328125 C-118.11374439 7.08824566 -118.06214095 2.54425601 -118 -2 C-89.31350074 -14.16867927 -28.05807613 -14.02903807 0 0 Z " fill="#DFDBDF" transform="translate(321,222)"/>
<path d="M0 0 C10.60988593 6.61434356 16.76322264 16.04882206 20 28 C20.33 28.99 20.66 29.98 21 31 C22.20123591 42.6176673 19.69396023 53.47235074 12.6875 62.9375 C11.4928765 64.32223563 10.26382894 65.67812464 9 67 C8.39285156 67.63550781 7.78570312 68.27101563 7.16015625 68.92578125 C0.56530585 75.22393081 -7.81277416 79.52479866 -17 80 C-17.94359375 80.07347656 -18.8871875 80.14695312 -19.859375 80.22265625 C-31.4462932 80.7631943 -41.21334728 77.32698298 -50.0703125 69.81640625 C-55.40550956 64.79440902 -59.14495346 59.76328802 -62 53 C-62.30035156 52.32324219 -62.60070312 51.64648438 -62.91015625 50.94921875 C-66.71344636 41.27294112 -66.07903888 30.47389675 -62 21 C-56.49631779 9.08319522 -47.92805045 0.45616122 -35.49609375 -4.18359375 C-23.44621872 -6.99747518 -10.88091472 -6.08618695 0 0 Z " fill="#040403" transform="translate(278,235)"/>
<path d="M0 0 C17.82 0 35.64 0 54 0 C54 12.375 54 12.375 53.44921875 16.83862305 C53.32909424 17.8388298 53.20896973 18.83903656 53.08520508 19.86955261 C52.88834106 21.42492485 52.88834106 21.42492485 52.6875 23.01171875 C52.55432373 24.10595657 52.42114746 25.2001944 52.28393555 26.32759094 C51.86212567 29.78168438 51.43122426 33.23457061 51 36.6875 C50.71033273 39.04614976 50.42126455 41.40487319 50.1328125 43.76367188 C49.42879363 49.50998879 48.71662558 55.25524222 48 61 C43.38 61 38.76 61 34 61 C33.97421875 59.08574219 33.9484375 57.17148437 33.921875 55.19921875 C33.86560692 52.69528929 33.80825931 50.19138392 33.75 47.6875 C33.73582031 46.42486328 33.72164063 45.16222656 33.70703125 43.86132812 C33.67480469 42.65283203 33.64257812 41.44433594 33.609375 40.19921875 C33.58842773 39.08377686 33.56748047 37.96833496 33.54589844 36.8190918 C33.24941938 33.91046727 33.24941938 33.91046727 31.15722656 32.10083008 C28.10714851 30.54437898 26.2325686 31.086448 23 32 C20.28336207 34.71663793 20.69246879 36.30194653 20.5859375 40.1015625 C20.54726562 41.31328125 20.50859375 42.525 20.46875 43.7734375 C20.42234375 45.67996094 20.42234375 45.67996094 20.375 47.625 C20.33632812 48.90375 20.29765625 50.1825 20.2578125 51.5 C20.16329244 54.66642211 20.080548 57.83319166 20 61 C15.38 61 10.76 61 6 61 C5.87625 59.67484375 5.7525 58.3496875 5.625 56.984375 C5.41859962 55.23935362 5.21015898 53.49457271 5 51.75 C4.92394531 50.87730469 4.84789062 50.00460937 4.76953125 49.10546875 C4.43254153 46.50866559 4.07816962 44.39106575 3 42 C0.99116894 40.70158367 -0.99813325 39.93130415 -3.22265625 39.06542969 C-5 38 -5 38 -5.74609375 36.20800781 C-6.0106513 34.02133788 -6.05834119 31.95140762 -6 29.75 C-6.01160156 29.00492187 -6.02320313 28.25984375 -6.03515625 27.4921875 C-6.05862569 25.66157127 -6.03405488 23.83044991 -6 22 C-5.195625 21.54625 -4.39125 21.0925 -3.5625 20.625 C-0.91143428 19.25274335 -0.91143428 19.25274335 0 17 C0 11.39 0 5.78 0 0 Z " fill="#C8C1C9" transform="translate(229,346)"/>
<path d="M0 0 C6.98851544 3.56782104 13.13687885 9.96589395 16.2265625 17.19921875 C18.79765746 25.71912167 17.12880197 33.33667077 13.2265625 41.19921875 C8.90057357 48.12315213 3.03416791 51.96700482 -4.7734375 54.19921875 C-13.64030857 55.47885659 -20.28798268 53.74537136 -27.70703125 48.94921875 C-33.69062251 44.41970451 -37.32562646 37.52602005 -38.7734375 30.19921875 C-39.68681914 22.36809417 -37.79984442 16.3321328 -33.16015625 9.99609375 C-24.56579218 -0.29427565 -13.04060518 -3.76524516 0 0 Z " fill="#FCE258" transform="translate(266.7734375,245.80078125)"/>
<path d="M0 0 C1.46469727 0.00966797 1.46469727 0.00966797 2.95898438 0.01953125 C3.96638672 0.03628906 4.97378906 0.05304688 6.01171875 0.0703125 C7.03845703 0.07933594 8.06519531 0.08835937 9.12304688 0.09765625 C11.64867774 0.12115049 14.17382685 0.15400119 16.69921875 0.1953125 C17.01738372 9.13472171 15.82116829 17.90169037 14.76171875 26.7578125 C14.57700807 28.33523197 14.39275985 29.91270567 14.20898438 31.49023438 C13.40140271 38.3956933 12.56673726 45.29711777 11.69921875 52.1953125 C7.07921875 52.1953125 2.45921875 52.1953125 -2.30078125 52.1953125 C-2.3265625 50.28105469 -2.35234375 48.36679687 -2.37890625 46.39453125 C-2.43517433 43.89060179 -2.49252194 41.38669642 -2.55078125 38.8828125 C-2.56496094 37.62017578 -2.57914062 36.35753906 -2.59375 35.05664062 C-2.62597656 33.84814453 -2.65820312 32.63964844 -2.69140625 31.39453125 C-2.71235352 30.27908936 -2.73330078 29.16364746 -2.75488281 28.0144043 C-3.05020127 25.10520898 -3.05020127 25.10520898 -5.14746094 23.30395508 C-8.25363513 21.7047332 -10.02231621 22.14899387 -13.30078125 23.1953125 C-16.97290578 26.64885819 -16.84142 30.6954 -16.98828125 35.4453125 C-17.02244141 36.19039063 -17.05660156 36.93546875 -17.09179688 37.703125 C-17.17392179 39.53333742 -17.23903778 41.36429919 -17.30078125 43.1953125 C-17.63078125 43.1953125 -17.96078125 43.1953125 -18.30078125 43.1953125 C-22.08515342 14.67736511 -22.08515342 14.67736511 -17.30078125 8.1953125 C-12.18770862 2.96861603 -7.51445171 -0.08788832 0 0 Z " fill="#DDD9DD" transform="translate(265.30078125,354.8046875)"/>
<path d="M0 0 C1.76923828 0.01353516 1.76923828 0.01353516 3.57421875 0.02734375 C4.47785156 0.03894531 5.38148438 0.05054688 6.3125 0.0625 C5.93738281 0.52398437 5.56226563 0.98546875 5.17578125 1.4609375 C3.48407333 3.61711939 1.88761122 5.81971869 0.3125 8.0625 C-0.43580078 9.114375 -0.43580078 9.114375 -1.19921875 10.1875 C-5.93388418 18.00173292 -6.22409516 27.21409659 -4.6875 36.0625 C-2.43766438 43.58817394 1.57886939 49.70516984 7.3125 55.0625 C-2.58782848 55.66556569 -9.47275153 54.46672895 -17.4375 48.4375 C-22.82094061 43.52980531 -26.08700522 36.21100445 -26.92578125 29.01953125 C-27.24266904 19.8631419 -23.62728037 13.39811104 -17.4921875 6.7890625 C-12.11500364 1.64465716 -7.45919682 -0.07385343 0 0 Z " fill="#FAD102" transform="translate(254.6875,244.9375)"/>
</svg>
